<svg xmlns="http://www.w3.org/2000/svg" viewBox="0.86 0 15.446000000000002 19.997">
  <path d="M13.623,10.627a4.526,4.526,0,0,1,2.159-3.808,4.668,4.668,0,0,0-3.657-1.982c-1.557-.158-3.039.917-3.83.917s-2.008-.894-3.3-.87A4.891,4.891,0,0,0,.86,7.39C-.9,10.45.408,14.985,2.127,17.467c.84,1.215,1.842,2.58,3.157,2.53,1.266-.05,1.745-.819,3.276-.819s1.962.82,3.3.8c1.363-.026,2.226-1.239,3.06-2.457a11.059,11.059,0,0,0,1.386-2.845,4.415,4.415,0,0,1-2.684-4.045ZM11.105,3.194A4.406,4.406,0,0,0,12.145,0,4.479,4.479,0,0,0,9.2,1.515,4.192,4.192,0,0,0,8.138,4.609,3.709,3.709,0,0,0,11.1,3.194Z
" fill="#FFFff"/>
</svg>