<svg xmlns="http://www.w3.org/2000/svg" viewBox="0 0 16 16">
  <path d="M13.1477 2C13.3738 2 13.5905 2.08979 13.7504 2.24962C13.9102 2.40946 14 2.62624 14 2.85227V13.6477C14 13.8738 13.9102 14.0905 13.7504 14.2504C13.5905 14.4102 13.3738 14.5 13.1477 14.5H2.35227C2.12624 14.5 1.90946 14.4102 1.74962 14.2504C1.58979 14.0905 1.5 13.8738 1.5 13.6477V2.85227C1.5 2.62624 1.58979 2.40946 1.74962 2.24962C1.90946 2.08979 2.12624 2 2.35227 2H13.1477ZM10.5909 13.3636H12.8636V3.13636H10.5909V13.3636ZM8.31818 8.81818C8.46887 8.81818 8.61339 8.75832 8.71995 8.65177C8.8265 8.54521 8.88636 8.40069 8.88636 8.25C8.88636 8.09931 8.8265 7.95479 8.71995 7.84823C8.61339 7.74168 8.46887 7.68182 8.31818 7.68182H5.47727V6.82955C5.47725 6.77556 5.46185 6.72271 5.43288 6.67716C5.4039 6.63161 5.36255 6.59527 5.31366 6.57237C5.26478 6.54948 5.21038 6.54099 5.15684 6.54789C5.1033 6.5548 5.05284 6.57682 5.01136 6.61136L3.30682 8.03182C3.27485 8.05848 3.24912 8.09184 3.23147 8.12955C3.21382 8.16725 3.20467 8.20837 3.20467 8.25C3.20467 8.29163 3.21382 8.33275 3.23147 8.37045C3.24912 8.40816 3.27485 8.44152 3.30682 8.46818L5.01136 9.88864C5.05262 9.92359 5.10309 9.94589 5.15671 9.95284C5.21034 9.9598 5.26483 9.95112 5.31364 9.92784C5.36256 9.90494 5.40394 9.86856 5.43292 9.82297C5.46191 9.77738 5.47729 9.72448 5.47727 9.67045V8.81818H8.31818Z" stroke="#ffffff" stroke-width=".8" fill="#7b7c7c"/>
</svg>