<svg xmlns="http://www.w3.org/2000/svg" viewBox="0 0 16 16">
  <path d="M10.2174 11.5071L10.5331 11.6909L10.8042 11.4459C11.0396 11.2332 11.3384 11.1044 11.6667 11.1044C12.3744 11.1044 12.9511 11.6811 12.9511 12.3889C12.9511 13.0966 12.3744 13.6733 11.6667 13.6733C10.9589 13.6733 10.3822 13.0966 10.3822 12.3889C10.3822 12.2992 10.3946 12.2039 10.4175 12.1075L10.5034 11.7469L10.1833 11.56L5.83224 9.01773L5.51224 8.83077L5.2403 9.08256C4.99562 9.30911 4.6808 9.44444 4.33333 9.44444C3.59503 9.44444 3 8.84941 3 8.11111C3 7.37281 3.59503 6.77778 4.33333 6.77778C4.6808 6.77778 4.99562 6.91311 5.2403 7.13966L5.51196 7.3912L5.83182 7.20473L10.1402 4.69307L10.4541 4.51003L10.3769 4.1549C10.3487 4.02527 10.3333 3.9261 10.3333 3.83333C10.3333 3.09503 10.9284 2.5 11.6667 2.5C12.405 2.5 13 3.09503 13 3.83333C13 4.57164 12.405 5.16667 11.6667 5.16667C11.3192 5.16667 11.0044 5.03133 10.7597 4.80479L10.488 4.55324L10.1682 4.73971L5.85985 7.25138L5.54587 7.43442L5.62308 7.78955C5.65126 7.91917 5.66667 8.01834 5.66667 8.11111C5.66667 8.20388 5.65126 8.30305 5.62308 8.43267L5.54582 8.78807L5.86015 8.97102L10.2174 11.5071Z" stroke="#7b7c7c" stroke-width=".8" fill="#ffffff"/>
</svg>